<svg width="52" height="80" viewBox="0 0 52 80" fill="none" xmlns="http://www.w3.org/2000/svg">
<path d="M51.0694 7.77382V4.73836C51.0694 3.48126 50.5704 2.27601 49.6818 1.38757C48.7933 0.499044 47.5882 8.03711e-06 46.331 8.03711e-06H43.2956C39.8903 8.03711e-06 36.5567 0.978463 33.6916 2.81952C30.8272 4.66044 28.5518 7.28621 27.1376 10.3843C26.8494 11.0055 26.2269 11.4032 25.5417 11.4032C24.8564 11.4032 24.2339 11.0055 23.9457 10.3843C22.5303 7.28427 20.253 4.65671 17.386 2.81563C14.5184 0.974702 11.1815 -0.00323446 7.77381 8.03711e-06H4.73835C3.48125 8.03711e-06 2.276 0.499044 1.38756 1.38757C0.499035 2.27609 0 3.48125 0 4.73836V7.77382C0 12.4844 1.8714 17.0016 5.20193 20.3328C8.53311 23.6633 13.0504 25.5347 17.7609 25.5347C19.0699 25.5347 20.3257 26.0547 21.2516 26.9806C22.1775 27.9064 22.6974 29.1623 22.6974 30.4713V31.0533C22.6702 31.7505 22.8925 32.4345 23.3238 32.9829C23.7551 33.5313 24.3681 33.9088 25.052 34.0462C25.8842 34.1899 26.7367 33.9556 27.3782 33.4072C28.0197 32.8588 28.3839 32.0532 28.3718 31.2089V30.4711C28.3718 29.1621 28.8918 27.9063 29.8177 26.9804C30.7435 26.0546 31.9994 25.5346 33.3084 25.5346C38.0189 25.5346 42.5362 23.6632 45.8674 20.3327C49.1979 17.0015 51.0693 12.4842 51.0693 7.77369L51.0694 7.77382Z" fill="#364C6F"/>
<path d="M27.2501 59.582C27.2501 60.5301 26.4819 61.2983 25.5339 61.2983C24.5858 61.2983 23.8176 60.5301 23.8176 59.582C23.8176 58.6339 24.5858 57.8658 25.5339 57.8658C26.4819 57.8658 27.2501 58.6339 27.2501 59.582Z" fill="#364C6F"/>
<path d="M45.3949 59.622C45.3949 54.3549 43.3025 49.3031 39.578 45.5786C35.8535 41.8541 30.8017 39.7617 25.5346 39.7617C20.2675 39.7617 15.2157 41.8541 11.4912 45.5786C7.7667 49.3031 5.67432 54.3549 5.67432 59.622C5.67432 64.8891 7.7667 69.9409 11.4912 73.6654C15.2157 77.3899 20.2675 79.4823 25.5346 79.4823C30.8017 79.4823 35.8535 77.3899 39.578 73.6654C43.3025 69.9409 45.3949 64.8891 45.3949 59.622ZM31.2089 59.622C31.1982 60.102 31.1266 60.5789 30.9962 61.0406L31.8897 61.9202C32.6073 62.6371 32.8872 63.6827 32.6244 64.6624C32.3622 65.6415 31.5972 66.4072 30.6174 66.6694C29.6377 66.9322 28.5922 66.6516 27.8752 65.9347L26.9532 65.0836C26.0266 65.3515 25.0425 65.3515 24.116 65.0836L23.2224 65.9772C22.5049 66.6947 21.4599 66.9746 20.4802 66.7118C19.5005 66.4496 18.7354 65.6846 18.4726 64.7048C18.2104 63.7251 18.4904 62.6796 19.2079 61.9627L20.1015 61.083C19.8336 60.1565 19.8336 59.173 20.1015 58.2458L19.2218 57.3662C18.5049 56.6493 18.2244 55.6044 18.4872 54.6246C18.7494 53.6449 19.515 52.8799 20.4941 52.6171C21.4739 52.3549 22.5194 52.6348 23.2363 53.3517L24.1299 54.2452C25.0571 53.9774 26.0405 53.9774 26.9671 54.2452L27.8607 53.3517H27.8613C28.5782 52.6348 29.6231 52.3549 30.6028 52.6171C31.5825 52.8799 32.3476 53.6449 32.6104 54.6246C32.8726 55.6044 32.5927 56.6493 31.8758 57.3662L30.9961 58.2458C31.1234 58.6942 31.195 59.1565 31.2089 59.622H31.2089Z" fill="#364C6F"/>
</svg>
